# xmcd
#
# Track frame offsets: 
#        150
#        17855
#        42536
#        58317
#        77312
#        95844
#        113040
#        132938
#        151871
#        175931
#        193869
#        209655
#        225582
#        247773
#        264393
#
# Disc length: 3601 seconds
#
# Revision: 0
# Processed by: cddbd v1.5.2PL0 Copyright (c) Steve Scherf et al.
# Submitted via: ExactAudioCopy v0.99pb5
#
DISCID=cb0e0f0f
DTITLE=Mr. Big - Lean Into It (WPCR-13463)
DYEAR=1991
DGENRE=Hard Rock
TTITLE0=Daddy, Brother, Lover, Little Boy (The Electric Drill Song)
TTITLE1=Alive And Kickin'
TTITLE2=Green Tinted Sixsties Mind
TTITLE3=CDFF-Lucky This Time
TTITLE4=Voodoo Kiss
TTITLE5=Never Say Never
TTITLE6=Just Take My Heart
TTITLE7=My Kinda Woman
TTITLE8=A Little To Loose
TTITLE9=Road To Ruin
TTITLE10=To Be With You
TTITLE11=Love Makes You Strong*
TTITLE12=Alive And Kickin'** (Early Version)
TTITLE13=Green Tintted Sixties Mind** (Early Version)
TTITLE14=To Be With You** (Raggay Version)
EXTD=
EXTT0=
EXTT1=
EXTT2=
EXTT3=
EXTT4=
EXTT5=
EXTT6=
EXTT7=
EXTT8=
EXTT9=
EXTT10=
EXTT11=
EXTT12=
EXTT13=
EXTT14=
PLAYORDER=
